<svg fill="none" height="27" viewBox="0 0 132 27" width="132" xmlns="http://www.w3.org/2000/svg" xmlns:xlink="http://www.w3.org/1999/xlink"><clipPath id="a"><path d="m0 0h132v27h-132z"/></clipPath><g clip-path="url(#a)" fill="#fff"><path d="m22.1098 3.75308v9.74622c.0002 1.6136-.4045 3.1996-1.1744 4.6035-.77 1.4039-1.879 2.5778-3.2189 3.4071s-2.8649 1.2857-4.4265 1.3248c-1.5615.0392-3.1062-.3404-4.48344-1.1017-1.37724-.7612-2.54001-1.8781-3.37492-3.2418-.83492-1.3637-1.31348-2.9276-1.38903-4.5393-.07554-1.6117.2545-3.216.95796-4.65669.70346-1.44065 1.75632-2.6684 3.05592-3.56353v7.76762c.0014 1.1968.40324 2.3563 1.13746 3.2821s1.75565 1.5609 2.89125 1.7978c.3238.0671.6533.1007.9836.1.6671.0143 1.3302-.1091 1.9506-.3629.6203-.2539 1.1854-.6331 1.6621-1.1154.4766-.4823.8553-1.058 1.1139-1.6934.2585-.6355.3917-1.3178.3917-2.0071 0-.6892-.1332-1.3716-.3917-2.007-.2586-.6354-.6373-1.2111-1.1139-1.69346-.4767-.48231-1.0418-.8615-1.6621-1.11534-.6204-.25385-1.2835-.37725-1.9506-.36297-.3302.00048-.6596.03399-.9836.10004v-4.19728c.3266-.0376.655-.05615.9836-.05558 1.7831-.00388 3.5271.54014 5.0101 1.56287v-4.70194c-3.0118-1.296451-6.3838-1.384358-9.45504-.246495-3.07129 1.137865-5.62054 3.419475-7.14822 6.397735-1.5276727 2.97822-1.92365 6.43852-1.110334 9.70262.813314 3.2641 2.777294 6.0969 5.507094 7.9431 2.72979 1.8463 6.0286 2.573 9.25 2.0377 3.2215-.5353 6.1333-2.2939 8.1649-4.9314 2.0316-2.6374 3.0366-5.9635 2.818-9.3264-.2186-3.36296-1.6451-6.52037-3.9998-8.85352zm-9.0389 8.30562c.2764-.0004.5468.0839.7768.2423.23.1583.4094.3836.5154.6474.1059.2637.1338.554.0799.8341-.0538.2801-.1868.5374-.3823.7393s-.4445.3393-.7157.3949c-.2711.0556-.5521.0269-.8074-.0826s-.4735-.2947-.6268-.5324c-.1533-.2376-.2349-.5168-.2345-.8024.0006-.3815.1474-.7472.4084-1.0172.2609-.27.6147-.4222.9841-.4234z"/><path d="m38.85 13.5056c0 2.8389-1.3752 4.3373-3.9728 4.3373h-2.8989v-8.6858h2.8989c2.5976 0 3.9728 1.4984 3.9728 4.3485zm-1.5065 0c0-2.0831-.7059-2.9301-2.4599-2.9301h-1.3859v5.849h1.3859c1.7475 0 2.4534-.847 2.4534-2.9189z"/><path d="m42.1148 12.763h3.5445v1.4651h-3.5445v2.2031h4.089v1.405h-5.5955v-8.6791h5.5955v1.405h-4.089z"/><path d="m53.6888 9.1571h1.6206l-3.2282 8.6858h-1.5495l-3.2282-8.6858h1.6141l2.3888 6.745z"/><path d="m58.1072 12.763h3.551v1.4651h-3.551v2.2031h4.089v1.405h-5.5955v-8.6791h5.5955v1.405h-4.089z"/><path d="m69.4876 16.3578v1.4851h-5.559v-8.6858h1.5065v7.2007z"/><path d="m78.337 13.5055c0 3.6749-2.1521 4.4463-3.9341 4.4463-1.7819 0-3.9211-.767-3.9211-4.4463 0-3.67925 2.1306-4.44623 3.9211-4.44623 1.7906 0 3.9341.76253 3.9341 4.44623zm-1.5065 0c0-2.6966-1.16-3.0612-2.4211-3.0612s-2.4082.3646-2.4082 3.0612c0 2.6967 1.16 3.0857 2.4082 3.0857s2.4039-.389 2.4039-3.0968z"/><path d="m86.4462 12.0739c0 1.8496-1.1342 2.9167-3.1141 2.9167h-1.627v2.8523h-1.5065v-8.6858h3.1399c1.9735 0 3.1077 1.0693 3.1077 2.9168zm-1.5065 0c0-.8893-.3013-1.4718-1.7217-1.4718h-1.5065v2.9702h1.5065c1.4247 0 1.726-.6003 1.726-1.4984z"/><path d="m89.528 12.763h3.5424v1.4651h-3.5424v2.2031h4.0891v1.405h-5.5956v-8.6791h5.5956v1.405h-4.0891z"/><path d="m102.066 17.8429h-1.827l-2.0057-3.0613h-1.3601v3.0613h-1.5065v-8.6858h3.2282c1.9371 0 3.1141.976 3.1141 2.7856 0 1.654-1.02 2.3187-1.8401 2.5788zm-3.5163-4.493c.8608 0 1.6373-.2089 1.6373-1.3672 0-1.1582-.7678-1.3672-1.6373-1.3672h-1.6765v2.7344z"/><path d="m109.179 15.5619c0 1.4451-1.339 2.3966-2.901 2.3966-.974.0257-1.935-.2316-2.774-.7426v-1.6006c.696.546 1.547.8398 2.421.8359.872 0 1.739-.1957 1.739-1.0027 0-1.9274-4.272-.8336-4.272-3.8682 0-1.77852 1.422-2.52549 3-2.52549.788.00819 1.563.21338 2.258.59802v1.52507c-.615-.4302-1.339-.6624-2.082-.6669-.794 0-1.663.2467-1.663 1.0293 0 1.5895 4.274.4646 4.274 4.0216z"/><path d="m111.026 9.11487h3.094c1.455 0 2.368.8359 2.368 2.16973.025.4417-.098.8788-.348 1.2379-.25.3592-.612.6184-1.025.7341v.0444c1.14.1623 1.868.9404 1.868 2.192 0 1.5296-1.111 2.4633-2.968 2.4633h-2.989zm.916 3.86163h1.475c1.431 0 2.152-.4713 2.152-1.5296 0-.9337-.586-1.47168-1.576-1.47168h-2.04zm0 4.1105h1.651c1.722 0 2.447-.4735 2.447-1.5562 0-1.0826-.727-1.6807-1.907-1.6807h-2.191z"/><path d="m118.091 17.9474 3.073-8.83253h.898l3.075 8.84143h-.96l-.91-2.7612h-3.299l-.911 2.7612zm3.504-7.6698-1.367 4.1239h2.772l-1.367-4.1239z"/><path d="m128.204 17.9474v-3.8905l-2.873-4.94203h1.058l2.247 4.00163h.06l2.247-4.00163h1.059l-2.875 4.93533v3.8972z"/></g></svg>